<?xml version="1.0" encoding="UTF-8" standalone="no"?>
<!DOCTYPE svg PUBLIC "-//W3C//DTD SVG 1.1//EN" "http://www.w3.org/Graphics/SVG/1.1/DTD/svg11.dtd">
<svg width="100%" height="100%" viewBox="0 0 500 200" version="1.1" xmlns="http://www.w3.org/2000/svg" xmlns:xlink="http://www.w3.org/1999/xlink" xml:space="preserve" xmlns:serif="http://www.serif.com/" style="fill-rule:evenodd;clip-rule:evenodd;stroke-linejoin:round;stroke-miterlimit:1.41421;">
    <g transform="matrix(0.5,0,0,0.5,0,0)">
        <g id="Artboard1" transform="matrix(0.966957,0,0,0.675155,-748.037,-365.425)">
            <rect x="773.599" y="541.246" width="1034.17" height="592.456" style="fill:none;"/>
            <g id="Layer1" transform="matrix(1.03417,0,0,1.48114,773.599,520.51)">
                <path d="M14.072,282.172C62.055,287.178 211.405,258.288 232.093,106.803C245.183,10.95 175.634,38.769 175.274,121.466C174.696,254.303 345.708,276.667 261.505,364.848C223.868,404.264 162.843,365.295 135.844,332.678C44.912,222.821 174.741,290.734 226.944,314.06C305.751,349.274 394.038,317.424 421.116,157.12C440.884,40.084 426.007,37.332 405.238,178.8C374.39,388.93 525.241,428.727 604.056,135.659C631.833,32.372 590.153,120.492 700.477,128.771C765.675,133.664 906.434,99.5 899.092,83.529C888.047,59.504 651.522,134.399 689.798,210.4C715.743,261.917 824.613,253.598 880.128,185.618C925.485,130.077 888.739,57.951 897.887,113.597C922.461,263.076 786.919,398.343 713.414,373.936C695.57,368.011 688.743,349.213 700.318,334.202C754.291,264.208 948.931,261.515 988.492,282.759" style="fill:none;"/>
            </g>
        </g>
    </g>
</svg>
