<?xml version="1.0" encoding="UTF-8" standalone="no"?>
<!DOCTYPE svg PUBLIC "-//W3C//DTD SVG 1.1//EN" "http://www.w3.org/Graphics/SVG/1.1/DTD/svg11.dtd">
<svg width="100%" height="100%" viewBox="0 0 500 200" version="1.1" xmlns="http://www.w3.org/2000/svg" xmlns:xlink="http://www.w3.org/1999/xlink" xml:space="preserve" xmlns:serif="http://www.serif.com/" style="fill-rule:evenodd;clip-rule:evenodd;stroke-linejoin:round;stroke-miterlimit:1.41421;">
    <g transform="matrix(0.5,0,0,0.5,0,0)">
        <g id="Artboard1" transform="matrix(0.966957,0,0,0.675155,-748.037,-365.425)">
            <rect x="773.599" y="541.246" width="1034.17" height="592.456" style="fill:none;"/>
            <g transform="matrix(1.03417,0,0,1.2726,27.2532,-187.379)">
                <path d="M996.666,679.872C1016.68,655.274 1009.67,616.655 985.445,597.875C929.217,554.281 849.568,590.954 855,674C858.594,728.954 906.299,755.034 943.827,790.796C1012.29,856.035 1022.56,916.434 998.214,960.514C990.689,974.138 979.57,987.254 965.375,1000.17C902.726,1057.19 800.881,1008.44 848.62,961.74C922.753,889.223 1057.88,928.034 1159.9,739.94C1246.37,580.503 1161.53,509.841 1145,669C1130.13,812.248 1215.47,889.427 1151.92,999.619C1123.03,1049.71 1109.19,1023.67 1140.8,971.27C1221.91,836.848 1336.07,790.934 1436,691C1453.9,673.095 1515.82,620.051 1520.21,595.06C1525.96,562.341 1464.68,579.599 1410.32,645.994C1360.37,706.991 1319.8,805.055 1363.57,835.284C1396.76,858.201 1500.26,816.383 1530.15,730.371C1577.48,594.192 1521.97,567.018 1533,671C1540.44,741.131 1523.55,836.38 1499.15,891.878C1458.48,984.405 1339.14,1066.05 1294.19,1014.08C1261.3,976.049 1335.33,916.554 1361.54,896.459C1478.06,807.134 1611.35,827.518 1682.83,840.829" style="fill:none;"/>
            </g>
        </g>
    </g>
</svg>
