<?xml version="1.0" encoding="UTF-8" standalone="no"?>
<!DOCTYPE svg PUBLIC "-//W3C//DTD SVG 1.1//EN" "http://www.w3.org/Graphics/SVG/1.1/DTD/svg11.dtd">
<svg width="100%" height="100%" viewBox="0 0 57 57" version="1.1" xmlns="http://www.w3.org/2000/svg" xmlns:xlink="http://www.w3.org/1999/xlink" xml:space="preserve" xmlns:serif="http://www.serif.com/" style="fill-rule:evenodd;clip-rule:evenodd;stroke-linejoin:round;stroke-miterlimit:1.41421;">
    <path d="M52.837,15.065C51.026,15.87 49.077,16.413 47.032,16.656C49.12,15.406 50.721,13.426 51.476,11.064C49.523,12.223 47.361,13.064 45.058,13.518C43.215,11.554 40.588,10.326 37.681,10.326C32.1,10.326 27.575,14.851 27.575,20.433C27.575,21.224 27.664,21.995 27.837,22.736C19.437,22.314 11.989,18.291 7.004,12.176C6.134,13.668 5.636,15.404 5.636,17.258C5.636,20.764 7.42,23.858 10.132,25.67C8.476,25.617 6.917,25.162 5.554,24.405C5.553,24.447 5.553,24.49 5.553,24.533C5.553,29.429 9.037,33.513 13.661,34.443C12.813,34.673 11.92,34.797 10.998,34.797C10.346,34.797 9.713,34.734 9.096,34.615C10.383,38.63 14.115,41.553 18.537,41.634C15.078,44.345 10.721,45.961 5.985,45.961C5.17,45.961 4.365,45.913 3.574,45.819C8.048,48.688 13.36,50.36 19.067,50.36C37.658,50.36 47.823,34.96 47.823,21.604C47.823,21.166 47.814,20.729 47.795,20.295C49.769,18.873 51.483,17.092 52.837,15.065Z" style="fill:white;fill-rule:nonzero;"/>
</svg>
