<?xml version="1.0" encoding="UTF-8" standalone="no"?>
<!DOCTYPE svg PUBLIC "-//W3C//DTD SVG 1.1//EN" "http://www.w3.org/Graphics/SVG/1.1/DTD/svg11.dtd">
<svg width="100%" height="100%" viewBox="0 0 48 48" version="1.1" xmlns="http://www.w3.org/2000/svg" xmlns:xlink="http://www.w3.org/1999/xlink" xml:space="preserve" xmlns:serif="http://www.serif.com/" style="fill-rule:evenodd;clip-rule:evenodd;stroke-linejoin:round;stroke-miterlimit:1.41421;">
    <g transform="matrix(0.863636,0,0,0.87963,2.77273,2.04656)">
        <path d="M43,46L33,46C31.3,46 30,44.7 30,43L30,28C30,27.4 29.6,27 29,27L19,27C18.4,27 18,27.4 18,28L18,43C18,44.7 16.7,46 15,46L5,46C3.3,46 2,44.7 2,43L2,24.8C2,24 2.3,23.3 2.9,22.7L21.9,3.7C23.1,2.5 24.9,2.5 26.1,3.7L45.1,22.7C45.7,23.3 46,24 46,24.8L46,43C46,44.7 44.7,46 43,46Z" style="fill:white;fill-rule:nonzero;"/>
    </g>
</svg>
