<?xml version="1.0" encoding="UTF-8" standalone="no"?>
<!DOCTYPE svg PUBLIC "-//W3C//DTD SVG 1.1//EN" "http://www.w3.org/Graphics/SVG/1.1/DTD/svg11.dtd">
<svg width="100%" height="100%" viewBox="0 0 60 60" version="1.1" xmlns="http://www.w3.org/2000/svg" xmlns:xlink="http://www.w3.org/1999/xlink" xml:space="preserve" xmlns:serif="http://www.serif.com/" style="fill-rule:evenodd;clip-rule:evenodd;stroke-linejoin:round;stroke-miterlimit:1.41421;">
    <g transform="matrix(1.41801,0.0151019,-0.015052,1.41333,1.85699,9.73403)">
        <g id="black">
            <path id="Fill-195" d="M38.792,6.762C38.792,6.762 38.417,4.119 37.267,2.955C35.809,1.428 34.174,1.421 33.425,1.331C28.058,0.943 20.009,0.943 20.009,0.943L19.991,0.943C19.991,0.943 11.942,0.943 6.575,1.331C5.826,1.421 4.192,1.428 2.733,2.955C1.583,4.119 1.209,6.762 1.209,6.762C1.209,6.762 0.826,9.865 0.826,12.968L0.826,15.878C0.826,18.981 1.209,22.084 1.209,22.084C1.209,22.084 1.583,24.727 2.733,25.891C4.192,27.418 6.108,27.369 6.962,27.529C10.03,27.824 20,27.915 20,27.915C20,27.915 28.058,27.903 33.425,27.515C34.174,27.425 35.809,27.418 37.267,25.891C38.417,24.727 38.792,22.084 38.792,22.084C38.792,22.084 39.174,18.981 39.174,15.878L39.174,12.968C39.174,9.865 38.792,6.762 38.792,6.762ZM16.041,19.403L16.039,8.628L26.401,14.034L16.041,19.403Z" style="fill:white;"/>
        </g>
    </g>
</svg>
